<svg width="126" height="24" viewBox="0 0 126 24" fill="none" xmlns="http://www.w3.org/2000/svg">
<path d="M12 13.4299C13.7231 13.4299 15.12 12.0331 15.12 10.3099C15.12 8.58681 13.7231 7.18994 12 7.18994C10.2769 7.18994 8.88 8.58681 8.88 10.3099C8.88 12.0331 10.2769 13.4299 12 13.4299Z" stroke="#292D32" stroke-width="1.5"/>
<path d="M3.62001 8.49C5.59001 -0.169998 18.42 -0.159997 20.38 8.5C21.53 13.58 18.37 17.88 15.6 20.54C13.59 22.48 10.41 22.48 8.39001 20.54C5.63001 17.88 2.47001 13.57 3.62001 8.49Z" stroke="#292D32" stroke-width="1.5"/>
<path d="M37.6437 5.878H39.0017V16H37.6437V5.878ZM43.4493 10.204L43.5613 11.618L43.5053 11.394C43.692 10.9647 43.9953 10.624 44.4153 10.372C44.8353 10.1107 45.3207 9.98 45.8713 9.98C46.422 9.98 46.87 10.1433 47.2153 10.47C47.57 10.7873 47.752 11.2027 47.7613 11.716V16H46.4453V12.178C46.436 11.8607 46.3427 11.604 46.1653 11.408C45.9973 11.2027 45.7313 11.1 45.3673 11.1C45.0313 11.1 44.728 11.1933 44.4573 11.38C44.1867 11.5667 43.972 11.8233 43.8133 12.15C43.664 12.4767 43.5893 12.8547 43.5893 13.284V16H42.2873V10.204H43.4493ZM51.2856 7.656H52.5876V10.232H54.1836V11.254H52.5876V16H51.2856V11.254H50.2216V10.232H51.2856V7.656ZM59.1449 16.14C58.4822 16.14 57.9129 16.0093 57.4369 15.748C56.9609 15.4773 56.5922 15.1133 56.3309 14.656C56.0789 14.1893 55.9529 13.6573 55.9529 13.06C55.9529 12.4907 56.0975 11.9727 56.3869 11.506C56.6762 11.0393 57.0635 10.666 57.5489 10.386C58.0342 10.106 58.5755 9.966 59.1729 9.966C59.9382 9.966 60.5729 10.19 61.0769 10.638C61.5809 11.086 61.9215 11.702 62.0989 12.486L57.3249 14.166L57.0169 13.396L60.9369 11.968L60.6569 12.15C60.5449 11.842 60.3582 11.576 60.0969 11.352C59.8355 11.1187 59.4949 11.002 59.0749 11.002C58.7202 11.002 58.4029 11.0907 58.1229 11.268C57.8429 11.436 57.6235 11.6693 57.4649 11.968C57.3062 12.2667 57.2269 12.6073 57.2269 12.99C57.2269 13.3913 57.3109 13.746 57.4789 14.054C57.6469 14.3527 57.8755 14.5907 58.1649 14.768C58.4635 14.936 58.7995 15.02 59.1729 15.02C59.4249 15.02 59.6675 14.9733 59.9009 14.88C60.1435 14.7867 60.3675 14.6653 60.5729 14.516L61.1749 15.482C60.8855 15.678 60.5589 15.8367 60.1949 15.958C59.8402 16.0793 59.4902 16.14 59.1449 16.14ZM65.5923 10.204L65.7183 11.884L65.6483 11.66C65.7976 11.3053 66.0123 11.0067 66.2923 10.764C66.5816 10.512 66.8803 10.3207 67.1883 10.19C67.5056 10.05 67.781 9.98 68.0143 9.98L67.9443 11.268C67.5056 11.24 67.1183 11.324 66.7823 11.52C66.4556 11.716 66.1943 11.9773 65.9983 12.304C65.8116 12.6307 65.7183 12.9807 65.7183 13.354V16H64.4303V10.204H65.5923ZM71.556 10.204L71.668 11.618L71.612 11.394C71.7986 10.9647 72.102 10.624 72.522 10.372C72.942 10.1107 73.4273 9.98 73.978 9.98C74.5286 9.98 74.9766 10.1433 75.322 10.47C75.6766 10.7873 75.8586 11.2027 75.868 11.716V16H74.552V12.178C74.5426 11.8607 74.4493 11.604 74.272 11.408C74.104 11.2027 73.838 11.1 73.474 11.1C73.138 11.1 72.8346 11.1933 72.564 11.38C72.2933 11.5667 72.0786 11.8233 71.92 12.15C71.7706 12.4767 71.696 12.8547 71.696 13.284V16H70.394V10.204H71.556ZM81.2402 16.14C80.6989 16.14 80.2042 16.0233 79.7562 15.79C79.3176 15.5567 78.9676 15.216 78.7062 14.768C78.4542 14.3107 78.3282 13.7553 78.3282 13.102C78.3282 12.458 78.4636 11.9027 78.7342 11.436C79.0049 10.96 79.3642 10.596 79.8122 10.344C80.2696 10.092 80.7689 9.966 81.3102 9.966C81.8516 9.966 82.3089 10.092 82.6822 10.344C83.0556 10.5867 83.3402 10.876 83.5362 11.212L83.4522 11.436L83.5782 10.204H84.7822V16H83.4802V14.488L83.6202 14.824C83.5829 14.9173 83.4989 15.0387 83.3682 15.188C83.2469 15.328 83.0789 15.4727 82.8642 15.622C82.6589 15.7713 82.4209 15.8973 82.1502 16C81.8796 16.0933 81.5762 16.14 81.2402 16.14ZM81.5902 15.062C81.9169 15.062 82.2109 15.0013 82.4722 14.88C82.7336 14.7587 82.9482 14.5907 83.1162 14.376C83.2936 14.152 83.4149 13.886 83.4802 13.578V12.444C83.4056 12.164 83.2749 11.9213 83.0882 11.716C82.9016 11.5013 82.6776 11.338 82.4162 11.226C82.1549 11.1047 81.8656 11.044 81.5482 11.044C81.2029 11.044 80.8856 11.128 80.5962 11.296C80.3069 11.464 80.0736 11.6973 79.8962 11.996C79.7282 12.2947 79.6442 12.6447 79.6442 13.046C79.6442 13.4193 79.7329 13.76 79.9102 14.068C80.0876 14.376 80.3256 14.6187 80.6242 14.796C80.9229 14.9733 81.2449 15.062 81.5902 15.062ZM88.2954 7.656H89.5974V10.232H91.1934V11.254H89.5974V16H88.2954V11.254H87.2314V10.232H88.2954V7.656ZM93.4666 10.204H94.7686V16H93.4666V10.204ZM93.3686 8.104C93.3686 7.89867 93.4479 7.726 93.6066 7.586C93.7746 7.446 93.9566 7.376 94.1526 7.376C94.3486 7.376 94.5213 7.446 94.6706 7.586C94.8293 7.726 94.9086 7.89867 94.9086 8.104C94.9086 8.31867 94.8293 8.496 94.6706 8.636C94.5213 8.76667 94.3486 8.832 94.1526 8.832C93.9566 8.832 93.7746 8.762 93.6066 8.622C93.4479 8.482 93.3686 8.30933 93.3686 8.104ZM97.2173 13.046C97.2173 12.4673 97.3526 11.9447 97.6233 11.478C97.9033 11.0113 98.286 10.6427 98.7713 10.372C99.2566 10.1013 99.8073 9.966 100.423 9.966C101.058 9.966 101.613 10.1013 102.089 10.372C102.565 10.6427 102.934 11.0113 103.195 11.478C103.457 11.9447 103.587 12.4673 103.587 13.046C103.587 13.6247 103.457 14.152 103.195 14.628C102.934 15.0947 102.561 15.4633 102.075 15.734C101.599 16.0047 101.044 16.14 100.409 16.14C99.7933 16.14 99.2426 16.014 98.7573 15.762C98.2813 15.5007 97.9033 15.1413 97.6233 14.684C97.3526 14.2173 97.2173 13.6713 97.2173 13.046ZM98.5193 13.06C98.5193 13.4333 98.6033 13.774 98.7713 14.082C98.9393 14.3807 99.1633 14.6187 99.4433 14.796C99.7326 14.9733 100.05 15.062 100.395 15.062C100.759 15.062 101.081 14.9733 101.361 14.796C101.651 14.6187 101.875 14.3807 102.033 14.082C102.192 13.774 102.271 13.4333 102.271 13.06C102.271 12.6867 102.192 12.3507 102.033 12.052C101.875 11.744 101.651 11.5013 101.361 11.324C101.081 11.1373 100.759 11.044 100.395 11.044C100.041 11.044 99.7186 11.1373 99.4293 11.324C99.1493 11.5107 98.9253 11.758 98.7573 12.066C98.5986 12.3647 98.5193 12.696 98.5193 13.06ZM107.212 10.204L107.324 11.618L107.268 11.394C107.455 10.9647 107.758 10.624 108.178 10.372C108.598 10.1107 109.084 9.98 109.634 9.98C110.185 9.98 110.633 10.1433 110.978 10.47C111.333 10.7873 111.515 11.2027 111.524 11.716V16H110.208V12.178C110.199 11.8607 110.106 11.604 109.928 11.408C109.76 11.2027 109.494 11.1 109.13 11.1C108.794 11.1 108.491 11.1933 108.22 11.38C107.95 11.5667 107.735 11.8233 107.576 12.15C107.427 12.4767 107.352 12.8547 107.352 13.284V16H106.05V10.204H107.212ZM116.896 16.14C116.355 16.14 115.86 16.0233 115.412 15.79C114.974 15.5567 114.624 15.216 114.362 14.768C114.11 14.3107 113.984 13.7553 113.984 13.102C113.984 12.458 114.12 11.9027 114.39 11.436C114.661 10.96 115.02 10.596 115.468 10.344C115.926 10.092 116.425 9.966 116.966 9.966C117.508 9.966 117.965 10.092 118.338 10.344C118.712 10.5867 118.996 10.876 119.192 11.212L119.108 11.436L119.234 10.204H120.438V16H119.136V14.488L119.276 14.824C119.239 14.9173 119.155 15.0387 119.024 15.188C118.903 15.328 118.735 15.4727 118.52 15.622C118.315 15.7713 118.077 15.8973 117.806 16C117.536 16.0933 117.232 16.14 116.896 16.14ZM117.246 15.062C117.573 15.062 117.867 15.0013 118.128 14.88C118.39 14.7587 118.604 14.5907 118.772 14.376C118.95 14.152 119.071 13.886 119.136 13.578V12.444C119.062 12.164 118.931 11.9213 118.744 11.716C118.558 11.5013 118.334 11.338 118.072 11.226C117.811 11.1047 117.522 11.044 117.204 11.044C116.859 11.044 116.542 11.128 116.252 11.296C115.963 11.464 115.73 11.6973 115.552 11.996C115.384 12.2947 115.3 12.6447 115.3 13.046C115.3 13.4193 115.389 13.76 115.566 14.068C115.744 14.376 115.982 14.6187 116.28 14.796C116.579 14.9733 116.901 15.062 117.246 15.062ZM123.392 5.164H124.694V16H123.392V5.164Z" fill="black"/>
</svg>
