<svg width="24" height="24" viewBox="0 0 24 24" fill="none" xmlns="http://www.w3.org/2000/svg">
<path d="M11.9833 0.899902C5.85 0.899902 0.883331 5.86657 0.883331 11.9999C0.883331 16.6999 3.8 20.7166 7.93333 22.3332C7.83333 21.4499 7.75 20.1166 7.96666 19.1499C8.16666 18.2832 9.26666 13.6332 9.26666 13.6332C9.26666 13.6332 8.93333 12.9666 8.93333 11.9832C8.93333 10.4332 9.83333 9.28324 10.9333 9.28324C11.8833 9.28324 12.3333 9.9999 12.3333 10.8499C12.3333 11.7999 11.7333 13.2332 11.4167 14.5499C11.15 15.6499 11.9667 16.5499 13.0667 16.5499C15.0333 16.5499 16.55 14.4666 16.55 11.4666C16.55 8.81657 14.6333 6.9499 11.9167 6.9499C8.76666 6.9499 6.9 9.31657 6.9 11.7666C6.9 12.7166 7.26666 13.7499 7.73333 14.2999C7.81666 14.4166 7.83333 14.4999 7.81666 14.6166C7.73333 14.9666 7.55 15.7166 7.51666 15.8666C7.46666 16.0666 7.35 16.1166 7.15 16.0166C5.76666 15.3666 4.9 13.3499 4.9 11.7166C4.9 8.21657 7.45 4.9999 12.2333 4.9999C16.0833 4.9999 19.0667 7.7499 19.0667 11.3999C19.0667 15.2166 16.65 18.2999 13.3167 18.2999C12.2 18.2999 11.1333 17.7166 10.7667 17.0332C10.7667 17.0332 10.2167 19.1499 10.0833 19.6666C9.83333 20.6332 9.15 21.8332 8.7 22.5832C9.73333 22.8999 10.8333 23.0832 11.9833 23.0832C18.1167 23.0832 23.0833 18.1166 23.0833 11.9832C23.0833 5.86657 18.1167 0.899902 11.9833 0.899902Z" fill="#131619"/>
</svg>
