<svg width="24" height="24" viewBox="0 0 24 24" fill="none" xmlns="http://www.w3.org/2000/svg">
<path fill-rule="evenodd" clip-rule="evenodd" d="M11.25 3.75C7.10786 3.75 3.75 7.10786 3.75 11.25C3.75 15.3921 7.10786 18.75 11.25 18.75C15.3921 18.75 18.75 15.3921 18.75 11.25C18.75 7.10786 15.3921 3.75 11.25 3.75ZM2.25 11.25C2.25 6.27944 6.27944 2.25 11.25 2.25C16.2206 2.25 20.25 6.27944 20.25 11.25C20.25 13.4653 19.4496 15.4936 18.1223 17.0616L21.5303 20.4697C21.8232 20.7626 21.8232 21.2374 21.5303 21.5303C21.2374 21.8232 20.7626 21.8232 20.4697 21.5303L17.0616 18.1223C15.4936 19.4496 13.4653 20.25 11.25 20.25C6.27944 20.25 2.25 16.2206 2.25 11.25Z" fill="black"/>
</svg>
